<svg xmlns="http://www.w3.org/2000/svg" width="3840" height="2160" viewBox="0 0 1920 1080">
  <defs><linearGradient id="bg" y2="1"><stop stop-color="#fffbea"/><stop offset="1" stop-color="#f8df8f"/></linearGradient><style>.title{font-weight:700;font-size:58px;font-family:"DejaVu Sans",sans-serif;fill:#132238}.sub{font-weight:400;font-size:29px;font-family:"DejaVu Sans",sans-serif;fill:#3b4858}.f{fill:#fff7e8;stroke-width:15}.l{stroke:#22b8a7;stroke-width:13;stroke-linecap:round}.c{fill:#f0645a}.t{fill:#7957d5}</style></defs>
  <rect width="1920" height="1080" fill="url(#bg)"/><circle cx="115" cy="105" r="50" fill="#f6c84c"/><text x="115" y="117" text-anchor="middle" font-family="DejaVu Sans" font-size="27" font-weight="700" fill="#132238">4</text><text x="190" y="105" class="title">¿Qué cuadro tiene algo de más?</text><text x="192" y="154" class="sub">Cinco obras obedecen exactamente la misma regla</text>
  <g transform="translate(145 235)">
    <g transform="translate(0 0)"><rect width="480" height="315" rx="25" class="f" stroke="#f0645a"/><circle cx="120" cy="100" r="34" class="c"/><circle cx="360" cy="215" r="34" class="c"/><path d="M240 74l45 78h-90Z" class="t"/><path d="M92 226h90M195 226h90M298 110v90" class="l"/></g>
    <g transform="translate(575 0)"><rect width="480" height="315" rx="25" class="f" stroke="#22b8a7"/><circle cx="115" cy="218" r="34" class="c"/><circle cx="362" cy="94" r="34" class="c"/><path d="M240 175l45 78h-90Z" class="t"/><path d="M90 102h90M198 102h90M335 165v82" class="l"/></g>
    <g transform="translate(1150 0)"><rect width="480" height="315" rx="25" class="f" stroke="#7957d5"/><circle cx="120" cy="105" r="34" class="c"/><circle cx="355" cy="108" r="34" class="c"/><path d="M240 178l45 78h-90Z" class="t"/><path d="M85 235h90M305 235h90M240 75v75" class="l"/></g>
    <g transform="translate(0 390)"><rect width="480" height="315" rx="25" class="f" stroke="#22b8a7"/><circle cx="113" cy="103" r="34" class="c"/><circle cx="113" cy="225" r="34" class="c"/><path d="M338 173l45 78h-90Z" class="t"/><path d="M203 85h90M203 150h90M203 220h90" class="l"/></g>
    <g transform="translate(575 390)"><rect width="480" height="315" rx="25" class="f" stroke="#f0645a"/><circle cx="110" cy="90" r="34" class="c"/><circle cx="370" cy="225" r="34" class="c"/><path d="M240 65l45 78h-90ZM240 185l45 78h-90Z" class="t"/><path d="M80 205h90M310 105h90M310 165h90" class="l"/></g>
    <g transform="translate(1150 390)"><rect width="480" height="315" rx="25" class="f" stroke="#7957d5"/><circle cx="113" cy="218" r="34" class="c"/><circle cx="367" cy="218" r="34" class="c"/><path d="M240 65l45 78h-90Z" class="t"/><path d="M78 107h90M312 107h90M240 180v78" class="l"/></g>
  </g>
  <g transform="translate(1725 95)"><circle r="58" fill="none" stroke="#fff" stroke-width="13" opacity=".8"/><path d="M0-58A58 58 0 1 1-55 18" fill="none" stroke="#f6c84c" stroke-width="13" stroke-linecap="round"/><text y="12" text-anchor="middle" class="title" font-size="38">9</text></g>
</svg>
